<svg xmlns="http://www.w3.org/2000/svg" viewBox="0 0 64 64" width="64" height="64" fill="none">
  <rect width="64" height="64" rx="14" fill="#0B0F19"/>
  <g stroke="#FFFFFF" stroke-width="2.6" stroke-linecap="round" stroke-linejoin="round" fill="none">
    <!-- hexagon frame (pointy top/bottom) -->
    <path d="M32 7 L53 19 L53 45 L32 57 L11 45 L11 19 Z"/>
    <!-- chat bubble with bottom-left tail -->
    <g transform="translate(17 15)">
      <path d="M21 15a2 2 0 0 1-2 2H7l-4 4V5a2 2 0 0 1 2-2h14a2 2 0 0 1 2 2z"/>
    </g>
    <!-- checkmark inside the bubble -->
    <path d="M23 26 l4 4 l8 -9"/>
    <!-- { ; } code braces, lower right -->
    <path d="M41 36 q-3 0 -3 3 q0 2 -2 2 q2 0 2 2 q0 3 3 3"/>
    <path d="M47 36 q3 0 3 3 q0 2 2 2 q-2 0 -2 2 q0 3 -3 3"/>
    <path d="M44 40.2 l0 1.6"/>
  </g>
</svg>
